<?xml version='1.0' encoding='ascii'?>
<svg xmlns="http://www.w3.org/2000/svg" version="1.1" width="1920" height="1080">
    <g id="ViewLayer_LineSet" xmlns:inkscape="http://www.inkscape.org/namespaces/inkscape" inkscape:groupmode="lineset" inkscape:label="ViewLayer_LineSet">
        <g xmlns:inkscape="http://www.inkscape.org/namespaces/inkscape" inkscape:groupmode="layer" id="strokes" inkscape:label="strokes">
            <path fill="none" stroke-width="3.0" stroke-linecap="butt" stroke-opacity="1.0" stroke="rgb(0, 0, 0)" stroke-linejoin="round" d=" M 122.071, 500.910 122.330, 501.410 122.528, 501.937 122.663, 502.486 122.734, 503.052 122.741, 503.629 122.683, 504.212 122.561, 504.795 122.376, 505.372 122.129, 505.938 121.824, 506.488 121.462, 507.016 121.049, 507.517 120.586, 507.987 120.080, 508.420 119.534, 508.812 118.808, 509.252 113.220, 512.639 104.668, 517.822 99.131, 521.178 90.579, 526.361 82.028, 531.544 73.476, 536.727 65.473, 541.578 71.134, 549.821 76.796, 558.064 82.458, 566.307 88.120, 574.549 93.781, 582.792 99.443, 591.035 105.105, 599.278 110.766, 607.521 116.428, 615.764 122.090, 624.007 127.752, 632.250 133.413, 640.492 139.075, 648.735 144.737, 656.978 150.398, 665.221 156.060, 673.464 161.722, 681.707 167.384, 689.950 173.045, 698.193 178.707, 706.435 184.369, 714.678 190.031, 722.921 195.692, 731.164 201.354, 739.407 207.016, 747.650 212.677, 755.893 218.339, 764.136 224.001, 772.378 229.663, 780.621 235.324, 788.864 240.986, 797.107 246.648, 805.350 252.309, 813.593 257.971, 821.836 263.633, 830.079 269.294, 838.321 272.617, 843.158 282.617, 843.158 292.617, 843.158 302.617, 843.158 312.617, 843.158 322.617, 843.158 332.617, 843.158 342.617, 843.158 352.617, 843.158 362.617, 843.158 372.617, 843.158 382.617, 843.158 392.617, 843.158 402.617, 843.158 412.617, 843.158 422.617, 843.158 432.617, 843.158 442.617, 843.158 452.617, 843.158 462.617, 843.158 472.617, 843.158 482.617, 843.158 492.617, 843.158 502.617, 843.158 512.617, 843.158 522.617, 843.158 532.617, 843.158 542.617, 843.158 552.617, 843.158 562.617, 843.158 572.617, 843.158 582.617, 843.158 592.617, 843.158 602.617, 843.158 612.617, 843.158 622.617, 843.158 632.617, 843.158 642.617, 843.158 652.617, 843.158 662.617, 843.158 672.617, 843.158 682.617, 843.158 692.617, 843.158 702.617, 843.158 712.617, 843.158 722.617, 843.158 732.617, 843.158 742.617, 843.158 752.617, 843.158 762.617, 843.158 772.617, 843.158 782.617, 843.158 792.617, 843.158 802.617, 843.158 812.617, 843.158 822.617, 843.158 832.617, 843.158 842.617, 843.158 852.617, 843.158 862.617, 843.158 872.617, 843.158 882.617, 843.158 892.617, 843.158 902.617, 843.158 912.617, 843.158 922.617, 843.158 932.617, 843.158 942.617, 843.158 952.617, 843.158 962.617, 843.158 972.617, 843.158 982.617, 843.158 992.617, 843.158 1002.617, 843.158 1012.617, 843.158 1022.617, 843.158 1032.617, 843.158 1042.617, 843.158 1052.617, 843.158 1062.617, 843.158 1072.617, 843.158 1082.617, 843.158 1092.617, 843.158 1102.617, 843.158 1112.617, 843.158 1122.617, 843.158 1132.617, 843.158 1142.617, 843.158 1152.617, 843.158 1162.617, 843.158 1172.617, 843.158 1182.617, 843.158 1192.617, 843.158 1202.617, 843.158 1212.617, 843.158 1222.617, 843.158 1232.617, 843.158 1242.617, 843.158 1252.617, 843.158 1262.617, 843.158 1272.617, 843.158 1282.617, 843.158 1292.617, 843.158 1302.617, 843.158 1312.617, 843.158 1322.617, 843.158 1332.617, 843.158 1342.617, 843.158 1352.617, 843.158 1362.617, 843.158 1372.617, 843.158 1382.617, 843.158 1392.617, 843.158 1402.617, 843.158 1412.617, 843.158 1422.617, 843.158 1432.617, 843.158 1442.617, 843.158 1452.617, 843.158 1462.617, 843.158 1472.617, 843.158 1482.617, 843.158 1492.617, 843.158 1502.617, 843.158 1512.617, 843.158 1522.617, 843.158 1532.617, 843.158 1542.617, 843.158 1552.617, 843.158 1562.617, 843.158 1572.617, 843.158 1582.617, 843.158 1592.617, 843.158 1602.617, 843.158 1612.617, 843.158 1622.617, 843.158 1632.617, 843.158 1647.383, 843.158 1653.045, 834.915 1658.706, 826.673 1664.368, 818.430 1670.030, 810.187 1675.692, 801.944 1681.353, 793.701 1687.015, 785.458 1692.677, 777.215 1698.338, 768.972 1704.000, 760.729 1709.662, 752.487 1715.323, 744.244 1720.985, 736.001 1726.647, 727.758 1732.309, 719.515 1737.970, 711.272 1743.632, 703.029 1749.294, 694.786 1754.955, 686.544 1760.617, 678.301 1766.279, 670.058 1771.941, 661.815 1777.602, 653.572 1783.264, 645.329 1788.926, 637.086 1794.587, 628.843 1800.249, 620.601 1805.911, 612.358 1811.573, 604.115 1817.234, 595.872 1822.896, 587.629 1828.558, 579.386 1834.219, 571.143 1839.881, 562.900 1845.543, 554.658 1851.204, 546.415 1854.527, 541.578 1852.909, 531.710 1851.290, 521.842 1849.672, 511.973 1848.054, 502.105 1846.436, 492.237 1844.818, 482.369 1843.200, 472.500 1841.581, 462.632 1839.963, 452.764 1838.345, 442.896 1836.727, 433.028 1835.109, 423.159 1833.491, 413.291 1831.873, 403.423 1830.254, 393.555 1828.636, 383.687 1827.018, 373.818 1825.400, 363.950 1823.782, 354.082 1822.164, 344.214 1820.546, 334.346 1818.927, 324.477 1817.309, 314.609 1816.658, 310.636 1815.040, 300.768 1813.646, 292.270 1803.646, 292.270 1793.646, 292.270 1783.646, 292.270 1773.646, 292.270 1763.646, 292.270 1753.646, 292.270 1743.646, 292.270 1733.646, 292.270 1723.646, 292.270 1713.646, 292.270 1703.646, 292.270 1693.646, 292.270 1683.646, 292.270 1673.646, 292.270 1663.646, 292.270 1653.646, 292.270 1643.646, 292.270 1633.646, 292.270 1623.646, 292.270 1613.646, 292.270 1603.646, 292.270 1593.646, 292.270 1583.646, 292.270 1573.646, 292.270 1563.646, 292.270 1553.646, 292.270 1543.646, 292.270 1533.646, 292.270 1523.646, 292.270 1513.646, 292.270 1503.646, 292.270 1493.646, 292.270 1483.646, 292.270 1473.646, 292.270 1463.646, 292.270 1453.646, 292.270 1443.646, 292.270 1433.646, 292.270 1423.646, 292.270 1413.646, 292.270 1403.646, 292.270 1393.646, 292.270 1383.646, 292.270 1373.646, 292.270 1363.646, 292.270 1353.646, 292.270 1343.646, 292.270 1333.646, 292.270 1323.646, 292.270 1313.646, 292.270 1303.646, 292.270 1293.646, 292.270 1283.646, 292.270 1273.646, 292.270 1263.646, 292.270 1253.646, 292.270 1243.646, 292.270 1233.646, 292.270 1223.646, 292.270 1213.646, 292.270 1203.646, 292.270 1193.646, 292.270 1183.646, 292.270 1173.646, 292.270 1163.646, 292.270 1153.646, 292.270 1143.646, 292.270 1133.646, 292.270 1123.646, 292.270 1113.646, 292.270 1103.646, 292.270 1093.646, 292.270 1083.646, 292.270 1073.646, 292.270 1063.646, 292.270 1053.646, 292.270 1043.646, 292.270 1033.646, 292.270 1023.646, 292.270 1013.646, 292.270 1003.646, 292.270 993.646, 292.270 983.646, 292.270 973.646, 292.270 963.646, 292.270 953.646, 292.270 943.646, 292.270 933.646, 292.270 923.646, 292.270 913.646, 292.270 903.646, 292.270 893.646, 292.270 883.646, 292.270 873.646, 292.270 863.646, 292.270 853.646, 292.270 843.646, 292.270 833.646, 292.270 823.646, 292.270 813.646, 292.270 803.646, 292.270 793.646, 292.270 783.646, 292.270 773.646, 292.270 763.646, 292.270 753.646, 292.270 743.646, 292.270 733.646, 292.270 723.646, 292.270 713.646, 292.270 703.646, 292.270 693.646, 292.270 683.646, 292.270 673.646, 292.270 663.646, 292.270 653.646, 292.270 643.646, 292.270 633.646, 292.270 623.646, 292.270 613.646, 292.270 603.646, 292.270 593.646, 292.270 583.646, 292.270 573.646, 292.270 563.646, 292.270 553.646, 292.270 543.646, 292.270 533.646, 292.270 523.646, 292.270 513.646, 292.270 503.646, 292.270 493.646, 292.270 483.646, 292.270 473.646, 292.270 463.646, 292.270 453.646, 292.270 443.646, 292.270 433.646, 292.270 423.646, 292.270 413.646, 292.270 403.646, 292.270 393.646, 292.270 383.646, 292.270 373.646, 292.270 363.646, 292.270 353.646, 292.270 343.646, 292.270 333.646, 292.270 323.646, 292.270 313.646, 292.270 303.646, 292.270 293.646, 292.270 283.646, 292.270 273.646, 292.270 263.646, 292.270 253.646, 292.270 243.646, 292.270 233.646, 292.270 223.646, 292.270 213.646, 292.270 203.646, 292.270 193.646, 292.270 183.646, 292.270 173.646, 292.270 163.646, 292.270 153.646, 292.270 143.646, 292.270 133.646, 292.270 123.646, 292.270 106.353, 292.270 104.735, 302.139 103.342, 310.636 101.724, 320.504 100.105, 330.372 98.487, 340.241 96.869, 350.109 95.251, 359.977 93.633, 369.845 92.015, 379.714 90.397, 389.582 88.778, 399.450 87.160, 409.318 85.542, 419.186 83.924, 429.055 82.306, 438.923 80.688, 448.791 79.069, 458.659 77.451, 468.527 75.833, 478.396 74.215, 488.264 72.597, 498.132 70.979, 508.000 69.361, 517.868 67.742, 527.737 66.124, 537.605 65.473, 541.578 " />
            <path fill="none" stroke-width="3.0" stroke-linecap="butt" stroke-opacity="1.0" stroke="rgb(0, 0, 0)" stroke-linejoin="round" d=" M 846.093, 432.573 856.093, 432.573 860.597, 432.573 870.597, 432.573 876.607, 432.573 886.607, 432.573 892.616, 432.573 902.616, 432.573 908.626, 432.573 918.626, 432.573 924.635, 432.573 934.635, 432.573 940.645, 432.573 950.645, 432.573 956.654, 432.573 966.654, 432.573 972.664, 432.573 982.664, 432.573 988.674, 432.573 998.674, 432.573 1004.683, 432.573 1014.683, 432.573 1020.693, 432.573 1030.693, 432.573 1036.702, 432.573 1046.702, 432.573 1052.712, 432.573 1062.712, 432.573 1068.721, 432.573 1073.907, 432.573 " />
            <path fill="none" stroke-width="3.0" stroke-linecap="butt" stroke-opacity="1.0" stroke="rgb(0, 0, 0)" stroke-linejoin="round" d=" M 1816.658, 310.636 1806.658, 310.636 1796.658, 310.636 1786.658, 310.636 1776.658, 310.636 1766.658, 310.636 1756.658, 310.636 1746.658, 310.636 1736.658, 310.636 1726.658, 310.636 1716.658, 310.636 1706.658, 310.636 1696.658, 310.636 1686.658, 310.636 1676.658, 310.636 1666.658, 310.636 1656.658, 310.636 1646.658, 310.636 1636.658, 310.636 1626.658, 310.636 1616.658, 310.636 1606.658, 310.636 1596.658, 310.636 1586.658, 310.636 1576.658, 310.636 1566.658, 310.636 1556.658, 310.636 1546.658, 310.636 1536.658, 310.636 1526.658, 310.636 1516.658, 310.636 1506.658, 310.636 1496.658, 310.636 1486.658, 310.636 1476.658, 310.636 1466.658, 310.636 1456.658, 310.636 1446.658, 310.636 1436.658, 310.636 1426.658, 310.636 1416.658, 310.636 1406.658, 310.636 1396.658, 310.636 1386.658, 310.636 1376.658, 310.636 1366.658, 310.636 1356.658, 310.636 1346.658, 310.636 1336.658, 310.636 1326.658, 310.636 1316.658, 310.636 1306.658, 310.636 1296.658, 310.636 1286.658, 310.636 1276.658, 310.636 1266.658, 310.636 1256.658, 310.636 1246.658, 310.636 1236.658, 310.636 1226.658, 310.636 1216.658, 310.636 1206.658, 310.636 1196.658, 310.636 1186.658, 310.636 1176.658, 310.636 1166.658, 310.636 1156.658, 310.636 1146.658, 310.636 1136.658, 310.636 1126.658, 310.636 1116.658, 310.636 1106.658, 310.636 1096.658, 310.636 1086.658, 310.636 1076.658, 310.636 1066.658, 310.636 1056.658, 310.636 1046.658, 310.636 1036.658, 310.636 1026.658, 310.636 1016.658, 310.636 1006.658, 310.636 996.658, 310.636 986.658, 310.636 976.658, 310.636 966.658, 310.636 956.658, 310.636 946.658, 310.636 936.658, 310.636 926.658, 310.636 916.658, 310.636 906.658, 310.636 896.658, 310.636 886.658, 310.636 876.658, 310.636 866.658, 310.636 856.658, 310.636 846.658, 310.636 836.658, 310.636 826.658, 310.636 816.658, 310.636 806.658, 310.636 796.658, 310.636 786.658, 310.636 776.658, 310.636 766.658, 310.636 756.658, 310.636 746.658, 310.636 736.658, 310.636 726.658, 310.636 716.658, 310.636 706.658, 310.636 696.658, 310.636 686.658, 310.636 676.658, 310.636 666.658, 310.636 656.658, 310.636 646.658, 310.636 636.658, 310.636 626.658, 310.636 616.658, 310.636 606.658, 310.636 596.658, 310.636 586.658, 310.636 576.658, 310.636 566.658, 310.636 556.658, 310.636 546.658, 310.636 536.658, 310.636 526.658, 310.636 516.658, 310.636 506.658, 310.636 496.658, 310.636 486.658, 310.636 476.658, 310.636 466.658, 310.636 456.658, 310.636 446.658, 310.636 436.658, 310.636 426.658, 310.636 416.658, 310.636 406.658, 310.636 396.658, 310.636 386.658, 310.636 376.658, 310.636 366.658, 310.636 356.658, 310.636 346.658, 310.636 336.658, 310.636 326.658, 310.636 316.658, 310.636 306.658, 310.636 296.658, 310.636 286.658, 310.636 276.658, 310.636 266.658, 310.636 256.658, 310.636 246.658, 310.636 236.658, 310.636 226.658, 310.636 216.658, 310.636 206.658, 310.636 196.658, 310.636 186.658, 310.636 176.658, 310.636 166.658, 310.636 156.658, 310.636 146.658, 310.636 136.658, 310.636 126.658, 310.636 103.342, 310.636 " />
            <path fill="none" stroke-width="3.0" stroke-linecap="butt" stroke-opacity="1.0" stroke="rgb(0, 0, 0)" stroke-linejoin="round" d=" M 311.261, 804.138 311.475, 804.547 311.642, 804.978 311.762, 805.426 311.832, 805.889 311.853, 806.361 311.824, 806.837 311.745, 807.313 311.617, 807.785 311.546, 807.973 311.442, 808.248 311.221, 808.698 310.955, 809.129 310.648, 809.539 310.303, 809.922 309.923, 810.276 309.511, 810.597 309.072, 810.881 308.609, 811.127 308.128, 811.331 307.633, 811.492 307.128, 811.608 306.619, 811.678 306.111, 811.701 305.607, 811.678 305.541, 811.669 305.114, 811.608 304.636, 811.492 304.178, 811.331 303.743, 811.127 303.337, 810.881 302.963, 810.597 302.624, 810.276 302.325, 809.922 302.067, 809.539 " />
            <path fill="none" stroke-width="3.0" stroke-linecap="butt" stroke-opacity="1.0" stroke="rgb(0, 0, 0)" stroke-linejoin="round" d=" M 302.067, 809.539 301.854, 809.129 301.687, 808.698 301.568, 808.248 301.498, 807.785 301.478, 807.313 301.508, 806.837 301.588, 806.361 301.716, 805.889 301.893, 805.426 302.115, 804.978 302.381, 804.547 302.688, 804.138 303.033, 803.755 303.414, 803.402 303.825, 803.082 304.264, 802.799 304.726, 802.554 305.206, 802.350 305.701, 802.190 306.205, 802.074 306.713, 802.004 307.221, 801.981 307.723, 802.004 308.216, 802.074 308.693, 802.190 309.151, 802.350 309.585, 802.554 309.991, 802.799 310.365, 803.082 310.703, 803.402 311.003, 803.755 311.261, 804.138 " />
            <path fill="none" stroke-width="3.0" stroke-linecap="butt" stroke-opacity="1.0" stroke="rgb(0, 0, 0)" stroke-linejoin="round" d=" M 308.170, 647.331 307.384, 654.030 306.220, 663.962 305.056, 673.894 303.892, 683.826 302.728, 693.758 301.563, 703.690 300.399, 713.622 299.235, 723.554 298.071, 733.486 296.907, 743.418 295.743, 753.350 294.578, 763.282 293.414, 773.214 292.250, 783.146 291.086, 793.078 289.922, 803.010 288.757, 812.942 287.593, 822.874 286.429, 832.806 285.899, 837.331 " />
            <path fill="none" stroke-width="3.0" stroke-linecap="butt" stroke-opacity="1.0" stroke="rgb(0, 0, 0)" stroke-linejoin="round" d=" M 1617.933, 809.539 1617.675, 809.922 1617.376, 810.276 1617.037, 810.597 1616.663, 810.881 1616.257, 811.127 1615.822, 811.331 1615.364, 811.492 1614.886, 811.608 1614.458, 811.669 1614.392, 811.678 1613.889, 811.702 1613.381, 811.678 1612.871, 811.608 1612.367, 811.492 1611.871, 811.331 1611.390, 811.127 1610.928, 810.881 1610.489, 810.597 1610.077, 810.276 1609.756, 809.993 " />
            <path fill="none" stroke-width="3.0" stroke-linecap="butt" stroke-opacity="1.0" stroke="rgb(0, 0, 0)" stroke-linejoin="round" d=" M 1825.642, 551.316 1815.642, 551.316 1805.642, 551.316 1795.642, 551.316 1785.642, 551.316 1775.642, 551.316 1765.642, 551.316 1755.642, 551.316 1745.642, 551.316 1735.642, 551.316 1725.642, 551.316 1715.642, 551.316 1705.642, 551.316 1695.642, 551.316 1685.642, 551.316 1682.188, 551.316 1672.188, 551.316 1671.131, 551.316 1664.133, 551.316 1654.133, 551.316 1651.183, 551.316 1646.078, 551.316 1643.163, 551.316 1643.163, 551.316 1633.163, 551.316 1623.163, 551.316 1613.163, 551.316 1603.163, 551.316 1593.163, 551.316 1583.163, 551.316 1573.163, 551.316 1563.163, 551.316 1553.163, 551.316 1543.163, 551.316 1533.163, 551.316 1523.163, 551.316 1513.163, 551.316 1503.163, 551.316 1493.163, 551.316 1483.163, 551.316 1473.163, 551.316 1463.163, 551.316 1453.163, 551.316 1443.163, 551.316 1433.163, 551.316 1423.163, 551.316 1413.163, 551.316 1403.163, 551.316 1393.163, 551.316 1383.163, 551.316 1373.163, 551.316 1363.163, 551.316 1353.163, 551.316 1343.163, 551.316 1333.163, 551.316 1323.163, 551.316 1313.163, 551.316 1303.163, 551.316 1293.163, 551.316 1283.163, 551.316 1273.163, 551.316 1263.163, 551.316 1253.163, 551.316 1243.163, 551.316 1233.163, 551.316 1223.163, 551.316 1213.163, 551.316 1203.163, 551.316 1193.163, 551.316 1183.163, 551.316 1173.163, 551.316 1163.163, 551.316 1153.163, 551.316 1143.163, 551.316 1133.163, 551.316 1123.163, 551.316 1113.163, 551.316 1103.163, 551.316 1093.163, 551.316 1083.163, 551.316 1073.163, 551.316 1063.163, 551.316 1053.163, 551.316 1043.163, 551.316 1033.163, 551.316 1023.163, 551.316 1013.163, 551.316 1003.163, 551.316 993.163, 551.316 983.163, 551.316 973.163, 551.316 963.163, 551.316 953.163, 551.316 943.163, 551.316 933.163, 551.316 923.163, 551.316 913.163, 551.316 903.163, 551.316 893.163, 551.316 883.163, 551.316 873.163, 551.316 863.163, 551.316 853.163, 551.316 843.163, 551.316 833.163, 551.316 823.163, 551.316 813.163, 551.316 803.163, 551.316 793.163, 551.316 783.163, 551.316 773.163, 551.316 763.163, 551.316 753.163, 551.316 743.163, 551.316 733.163, 551.316 723.163, 551.316 713.163, 551.316 703.163, 551.316 693.163, 551.316 679.543, 551.316 679.543, 551.316 678.347, 551.316 676.251, 551.316 666.251, 551.316 656.251, 551.316 646.251, 551.316 636.251, 551.316 626.251, 551.316 616.251, 551.316 606.251, 551.316 596.251, 551.316 586.251, 551.316 576.251, 551.316 566.251, 551.316 556.251, 551.316 546.251, 551.316 536.251, 551.316 526.251, 551.316 516.251, 551.316 506.251, 551.316 496.251, 551.316 486.251, 551.316 476.251, 551.316 466.251, 551.316 456.251, 551.316 446.251, 551.316 436.251, 551.316 426.251, 551.316 416.251, 551.316 406.251, 551.316 396.251, 551.316 386.251, 551.316 376.251, 551.316 366.251, 551.316 356.251, 551.316 346.251, 551.316 336.251, 551.316 326.251, 551.316 316.251, 551.316 306.251, 551.316 296.251, 551.316 286.251, 551.316 276.251, 551.316 266.251, 551.316 255.867, 551.316 248.869, 551.316 238.869, 551.316 237.812, 551.316 227.812, 551.316 217.812, 551.316 207.812, 551.316 197.812, 551.316 187.812, 551.316 177.812, 551.316 167.812, 551.316 157.812, 551.316 147.812, 551.316 137.812, 551.316 127.812, 551.316 117.812, 551.316 107.812, 551.316 97.812, 551.316 94.358, 551.316 99.922, 559.625 105.486, 567.934 111.051, 576.243 116.615, 584.552 122.179, 592.861 127.744, 601.169 133.308, 609.478 138.873, 617.787 144.437, 626.096 150.001, 634.405 155.566, 642.714 161.130, 651.023 166.694, 659.332 172.259, 667.641 177.823, 675.949 183.388, 684.258 188.952, 692.567 194.516, 700.876 200.081, 709.185 205.645, 717.494 211.210, 725.803 216.774, 734.112 222.338, 742.421 227.903, 750.729 233.467, 759.038 239.031, 767.347 244.596, 775.656 250.160, 783.965 255.725, 792.274 261.289, 800.583 266.853, 808.892 272.418, 817.201 277.982, 825.510 283.546, 833.818 285.899, 837.331 295.899, 837.331 305.899, 837.331 315.899, 837.331 325.899, 837.331 335.899, 837.331 345.899, 837.331 355.899, 837.331 365.899, 837.331 375.899, 837.331 385.899, 837.331 395.899, 837.331 405.899, 837.331 415.899, 837.331 425.899, 837.331 435.899, 837.331 445.899, 837.331 455.899, 837.331 465.899, 837.331 475.899, 837.331 485.899, 837.331 495.899, 837.331 505.899, 837.331 515.899, 837.331 525.899, 837.331 535.899, 837.331 545.899, 837.331 555.899, 837.331 565.899, 837.331 575.899, 837.331 585.899, 837.331 595.899, 837.331 605.899, 837.331 615.899, 837.331 625.899, 837.331 635.899, 837.331 645.899, 837.331 655.899, 837.331 665.899, 837.331 675.899, 837.331 685.899, 837.331 695.899, 837.331 705.899, 837.331 715.899, 837.331 725.899, 837.331 735.899, 837.331 745.899, 837.331 755.899, 837.331 765.899, 837.331 775.899, 837.331 785.899, 837.331 795.899, 837.331 805.899, 837.331 815.899, 837.331 825.899, 837.331 835.899, 837.331 845.899, 837.331 855.899, 837.331 865.899, 837.331 875.899, 837.331 885.899, 837.331 895.899, 837.331 905.899, 837.331 915.899, 837.331 925.899, 837.331 935.899, 837.331 945.899, 837.331 955.899, 837.331 965.899, 837.331 975.899, 837.331 985.899, 837.331 995.899, 837.331 1005.899, 837.331 1015.899, 837.331 1025.899, 837.331 1035.899, 837.331 1045.899, 837.331 1055.899, 837.331 1065.899, 837.331 1075.899, 837.331 1085.899, 837.331 1095.899, 837.331 1105.899, 837.331 1115.899, 837.331 1125.899, 837.331 1135.899, 837.331 1145.899, 837.331 1155.899, 837.331 1165.899, 837.331 1175.899, 837.331 1185.899, 837.331 1195.899, 837.331 1205.899, 837.331 1215.899, 837.331 1225.899, 837.331 1235.899, 837.331 1245.899, 837.331 1255.899, 837.331 1265.899, 837.331 1275.899, 837.331 1285.899, 837.331 1295.899, 837.331 1305.899, 837.331 1315.899, 837.331 1325.899, 837.331 1335.899, 837.331 1345.899, 837.331 1355.899, 837.331 1365.899, 837.331 1375.899, 837.331 1385.899, 837.331 1395.899, 837.331 1405.899, 837.331 1415.899, 837.331 1425.899, 837.331 1435.899, 837.331 1445.899, 837.331 1455.899, 837.331 1465.899, 837.331 1475.899, 837.331 1485.899, 837.331 1495.899, 837.331 1505.899, 837.331 1515.899, 837.331 1525.899, 837.331 1535.899, 837.331 1545.899, 837.331 1555.899, 837.331 1565.899, 837.331 1575.899, 837.331 1585.899, 837.331 1595.899, 837.331 1605.899, 837.331 1615.899, 837.331 1634.101, 837.331 " />
            <path fill="none" stroke-width="3.0" stroke-linecap="butt" stroke-opacity="1.0" stroke="rgb(0, 0, 0)" stroke-linejoin="round" d=" M 1634.101, 837.331 1627.450, 829.863 1620.800, 822.395 1614.357, 815.160 1614.336, 815.136 1609.756, 809.993 1609.351, 809.539 1609.045, 809.129 1608.779, 808.698 1608.558, 808.248 1608.453, 807.973 1608.382, 807.785 1608.255, 807.313 1608.176, 806.837 1608.147, 806.361 1608.167, 805.889 1608.238, 805.427 1608.357, 804.978 1608.525, 804.547 1608.739, 804.138 " />
            <path fill="none" stroke-width="3.0" stroke-linecap="butt" stroke-opacity="1.0" stroke="rgb(0, 0, 0)" stroke-linejoin="round" d=" M 1608.739, 804.138 1608.997, 803.755 1609.296, 803.402 1609.635, 803.082 1610.009, 802.799 1610.415, 802.554 1610.849, 802.350 1611.307, 802.190 1611.784, 802.074 1612.277, 802.004 1612.779, 801.981 1613.287, 802.004 1613.795, 802.074 1614.299, 802.190 1614.793, 802.350 1615.274, 802.554 1615.736, 802.799 1616.175, 803.082 1616.586, 803.402 1616.967, 803.755 1617.312, 804.138 1617.619, 804.547 1617.885, 804.978 1618.107, 805.427 1618.283, 805.889 1618.412, 806.361 1618.491, 806.837 1618.521, 807.313 1618.502, 807.785 1618.432, 808.248 1618.313, 808.698 1618.146, 809.129 1617.933, 809.539 " />
            <path fill="none" stroke-width="3.0" stroke-linecap="butt" stroke-opacity="1.0" stroke="rgb(0, 0, 0)" stroke-linejoin="round" d=" M 1616.461, 638.829 1611.830, 647.331 1601.830, 647.331 1591.830, 647.331 1581.830, 647.331 1571.830, 647.331 1561.830, 647.331 1551.830, 647.331 1541.830, 647.331 1531.830, 647.331 1521.830, 647.331 1511.830, 647.331 1501.830, 647.331 1491.830, 647.331 1481.830, 647.331 1471.830, 647.331 1461.830, 647.331 1451.830, 647.331 1441.830, 647.331 1431.830, 647.331 1421.830, 647.331 1411.830, 647.331 1401.830, 647.331 1391.830, 647.331 1381.830, 647.331 1371.830, 647.331 1361.830, 647.331 1351.830, 647.331 1341.830, 647.331 1331.830, 647.331 1321.830, 647.331 1311.830, 647.331 1301.830, 647.331 1291.830, 647.331 1281.830, 647.331 1271.830, 647.331 1261.830, 647.331 1251.830, 647.331 1241.830, 647.331 1231.830, 647.331 1221.830, 647.331 1211.830, 647.331 1201.830, 647.331 1191.830, 647.331 1181.830, 647.331 1171.830, 647.331 1161.830, 647.331 1151.830, 647.331 1141.830, 647.331 1131.830, 647.331 1121.830, 647.331 1111.830, 647.331 1101.830, 647.331 1091.830, 647.331 1081.830, 647.331 1071.830, 647.331 1061.830, 647.331 1051.830, 647.331 1041.830, 647.331 1031.830, 647.331 1021.830, 647.331 1011.830, 647.331 1001.830, 647.331 991.830, 647.331 981.830, 647.331 971.830, 647.331 961.830, 647.331 951.830, 647.331 941.830, 647.331 931.830, 647.331 921.830, 647.331 911.830, 647.331 901.830, 647.331 891.830, 647.331 881.830, 647.331 871.830, 647.331 861.830, 647.331 851.830, 647.331 841.830, 647.331 831.830, 647.331 821.830, 647.331 811.830, 647.331 801.830, 647.331 791.830, 647.331 781.830, 647.331 771.830, 647.331 761.830, 647.331 751.830, 647.331 741.830, 647.331 731.830, 647.331 721.830, 647.331 711.830, 647.331 701.830, 647.331 691.830, 647.331 681.830, 647.331 671.830, 647.331 661.830, 647.331 651.830, 647.331 641.830, 647.331 631.830, 647.331 621.830, 647.331 611.830, 647.331 601.830, 647.331 591.830, 647.331 581.830, 647.331 571.830, 647.331 561.830, 647.331 551.830, 647.331 541.830, 647.331 531.830, 647.331 521.830, 647.331 511.830, 647.331 501.830, 647.331 491.830, 647.331 481.830, 647.331 471.830, 647.331 461.830, 647.331 451.830, 647.331 441.830, 647.331 431.830, 647.331 421.830, 647.331 411.830, 647.331 401.830, 647.331 391.830, 647.331 381.830, 647.331 371.830, 647.331 361.830, 647.331 351.830, 647.331 341.830, 647.331 331.830, 647.331 321.830, 647.331 308.170, 647.331 303.538, 638.829 298.755, 630.047 293.971, 621.266 289.187, 612.484 284.404, 603.703 279.620, 594.921 274.836, 586.140 270.053, 577.358 265.269, 568.576 260.485, 559.795 255.867, 551.316 " />
            <path fill="none" stroke-width="3.0" stroke-linecap="butt" stroke-opacity="1.0" stroke="rgb(0, 0, 0)" stroke-linejoin="round" d=" M 1825.642, 551.316 1820.078, 559.625 1814.513, 567.934 1808.949, 576.243 1803.385, 584.552 1797.820, 592.861 1792.256, 601.170 1786.691, 609.478 1781.127, 617.787 1775.563, 626.096 1769.998, 634.405 1764.434, 642.714 1758.869, 651.023 1753.305, 659.332 1747.741, 667.641 1742.176, 675.950 1736.612, 684.258 1731.047, 692.567 1725.483, 700.876 1719.919, 709.185 1714.354, 717.494 1708.790, 725.803 1703.226, 734.112 1697.661, 742.421 1692.097, 750.730 1686.532, 759.038 1680.968, 767.347 1675.404, 775.656 1669.839, 783.965 1664.275, 792.274 1658.711, 800.583 1653.146, 808.892 1647.582, 817.201 1642.017, 825.510 1636.453, 833.818 1634.101, 837.331 1632.937, 827.399 1631.772, 817.467 1630.608, 807.535 1629.444, 797.603 1628.280, 787.671 1627.116, 777.739 1625.952, 767.807 1624.787, 757.875 1623.623, 747.943 1622.459, 738.011 1621.295, 728.079 1620.131, 718.147 1618.967, 708.215 1617.802, 698.283 1616.638, 688.351 1615.474, 678.419 1614.310, 668.487 1613.146, 658.555 1612.615, 654.030 1611.830, 647.331 " />
            <path fill="none" stroke-width="3.0" stroke-linecap="butt" stroke-opacity="1.0" stroke="rgb(0, 0, 0)" stroke-linejoin="round" d=" M 1854.527, 541.578 1844.527, 541.578 1834.527, 541.578 1824.527, 541.578 1824.099, 541.578 1814.099, 541.578 1804.099, 541.578 1794.099, 541.578 1784.099, 541.578 1774.099, 541.578 1764.099, 541.578 1754.099, 541.578 1744.099, 541.578 1734.099, 541.578 1724.099, 541.578 1714.099, 541.578 1704.099, 541.578 1694.099, 541.578 1687.629, 541.578 1677.629, 541.578 1669.438, 541.578 1659.438, 541.578 1656.390, 541.578 1646.390, 541.578 1636.390, 541.578 1626.390, 541.578 1616.390, 541.578 1606.390, 541.578 1596.390, 541.578 1586.390, 541.578 1576.390, 541.578 1566.390, 541.578 1556.390, 541.578 1546.390, 541.578 1536.390, 541.578 1526.390, 541.578 1516.390, 541.578 1506.390, 541.578 1496.390, 541.578 1486.390, 541.578 1476.390, 541.578 1466.390, 541.578 1456.390, 541.578 1446.390, 541.578 1436.390, 541.578 1426.390, 541.578 1416.390, 541.578 1406.390, 541.578 1396.390, 541.578 1386.390, 541.578 1376.390, 541.578 1366.390, 541.578 1356.390, 541.578 1346.390, 541.578 1336.390, 541.578 1326.390, 541.578 1316.390, 541.578 1306.390, 541.578 1296.390, 541.578 1286.390, 541.578 1276.390, 541.578 1266.390, 541.578 1256.390, 541.578 1246.390, 541.578 1236.390, 541.578 1226.390, 541.578 1216.390, 541.578 1206.390, 541.578 1196.390, 541.578 1186.390, 541.578 1176.390, 541.578 1166.390, 541.578 1156.390, 541.578 1146.390, 541.578 1136.390, 541.578 1126.390, 541.578 1116.390, 541.578 1106.390, 541.578 1096.390, 541.578 1086.390, 541.578 1076.390, 541.578 1066.390, 541.578 1056.390, 541.578 1046.390, 541.578 1036.390, 541.578 1026.390, 541.578 1016.390, 541.578 1006.390, 541.578 996.390, 541.578 986.390, 541.578 976.390, 541.578 966.390, 541.578 956.390, 541.578 946.390, 541.578 936.390, 541.578 926.390, 541.578 916.390, 541.578 906.390, 541.578 896.390, 541.578 886.390, 541.578 876.390, 541.578 866.390, 541.578 856.390, 541.578 846.390, 541.578 836.390, 541.578 826.390, 541.578 816.390, 541.578 806.390, 541.578 796.390, 541.578 786.390, 541.578 776.390, 541.578 766.390, 541.578 756.390, 541.578 746.390, 541.578 736.390, 541.578 726.390, 541.578 716.390, 541.578 706.390, 541.578 696.390, 541.578 686.390, 541.578 674.113, 541.578 664.113, 541.578 654.113, 541.578 644.113, 541.578 634.113, 541.578 624.113, 541.578 614.113, 541.578 604.113, 541.578 594.113, 541.578 584.113, 541.578 574.113, 541.578 564.113, 541.578 554.113, 541.578 544.113, 541.578 534.113, 541.578 524.113, 541.578 514.113, 541.578 504.113, 541.578 494.113, 541.578 484.113, 541.578 474.113, 541.578 464.113, 541.578 454.113, 541.578 444.113, 541.578 434.113, 541.578 424.113, 541.578 414.113, 541.578 404.113, 541.578 394.113, 541.578 384.113, 541.578 374.113, 541.578 364.113, 541.578 354.113, 541.578 344.113, 541.578 334.113, 541.578 324.113, 541.578 314.113, 541.578 304.113, 541.578 294.113, 541.578 284.113, 541.578 274.113, 541.578 264.113, 541.578 250.562, 541.578 240.562, 541.578 232.371, 541.578 222.371, 541.578 212.371, 541.578 202.371, 541.578 192.371, 541.578 182.371, 541.578 172.371, 541.578 162.371, 541.578 152.371, 541.578 142.371, 541.578 132.371, 541.578 122.371, 541.578 112.371, 541.578 102.371, 541.578 95.900, 541.578 85.900, 541.578 75.900, 541.578 65.900, 541.578 65.473, 541.578 " />
            <path fill="none" stroke-width="3.0" stroke-linecap="butt" stroke-opacity="1.0" stroke="rgb(0, 0, 0)" stroke-linejoin="round" d=" M 845.063, 426.430 845.209, 425.740 846.962, 417.416 847.414, 415.269 847.539, 414.675 852.873, 406.216 855.534, 401.997 857.998, 399.975 862.923, 395.935 867.745, 391.978 876.961, 388.098 882.976, 385.566 892.891, 384.263 899.761, 383.360 909.761, 383.360 919.761, 383.360 929.761, 383.360 939.761, 383.360 949.761, 383.360 959.761, 383.360 969.761, 383.360 979.761, 383.360 989.761, 383.360 999.761, 383.360 1009.761, 383.360 1020.239, 383.360 1030.153, 384.663 1037.024, 385.566 1046.240, 389.446 1052.255, 391.978 1057.077, 395.935 1062.002, 399.975 1064.465, 401.997 1069.800, 410.455 1072.461, 414.675 1072.586, 415.269 1073.038, 417.416 1074.791, 425.740 1074.936, 426.430 " />
            <path fill="none" stroke-width="3.0" stroke-linecap="butt" stroke-opacity="1.0" stroke="rgb(0, 0, 0)" stroke-linejoin="round" d=" M 1810.038, 507.517 1809.722, 507.987 1809.350, 508.420 1808.927, 508.812 1808.456, 509.161 1807.941, 509.461 1807.389, 509.711 1806.803, 509.908 1806.190, 510.050 1805.556, 510.136 1804.907, 510.165 1804.249, 510.136 1803.588, 510.050 1802.931, 509.908 1802.284, 509.711 1801.653, 509.461 1801.045, 509.161 1800.466, 508.812 1799.920, 508.420 1799.414, 507.987 1798.951, 507.517 1798.537, 507.016 1798.176, 506.488 1797.871, 505.938 1797.624, 505.372 1797.439, 504.795 1797.317, 504.212 1797.259, 503.629 1797.265, 503.052 1797.337, 502.486 1797.472, 501.937 1797.670, 501.410 1797.929, 500.910 " />
            <path fill="none" stroke-width="3.0" stroke-linecap="butt" stroke-opacity="1.0" stroke="rgb(0, 0, 0)" stroke-linejoin="round" d=" M 118.808, 509.252 118.346, 509.461 117.716, 509.711 117.069, 509.908 116.412, 510.050 115.751, 510.136 115.093, 510.165 114.443, 510.136 113.809, 510.050 113.196, 509.908 112.611, 509.711 112.058, 509.461 111.544, 509.161 111.073, 508.812 110.649, 508.420 110.278, 507.987 109.962, 507.517 " />
            <path fill="none" stroke-width="3.0" stroke-linecap="butt" stroke-opacity="1.0" stroke="rgb(0, 0, 0)" stroke-linejoin="round" d=" M 1797.929, 500.910 1798.245, 500.442 1798.617, 500.010 1799.041, 499.619 1799.512, 499.272 1800.026, 498.972 1800.578, 498.723 1801.162, 498.527 1801.774, 498.386 1802.406, 498.300 1803.054, 498.272 1803.711, 498.300 1804.370, 498.386 1805.026, 498.527 1805.672, 498.723 1806.301, 498.972 1806.909, 499.272 1807.488, 499.619 1808.033, 500.010 1808.539, 500.442 1809.002, 500.910 1809.417, 501.410 1809.778, 501.937 1810.085, 502.486 1810.333, 503.052 1810.519, 503.629 1810.643, 504.212 1810.702, 504.795 1810.697, 505.372 1810.627, 505.938 1810.493, 506.488 1810.296, 507.016 1810.038, 507.517 " />
            <path fill="none" stroke-width="3.0" stroke-linecap="butt" stroke-opacity="1.0" stroke="rgb(0, 0, 0)" stroke-linejoin="round" d=" M 109.962, 507.517 109.704, 507.016 109.507, 506.488 109.373, 505.938 109.303, 505.372 109.298, 504.795 109.357, 504.212 109.481, 503.629 109.667, 503.052 109.915, 502.486 110.221, 501.937 110.583, 501.410 110.998, 500.910 111.460, 500.442 111.967, 500.010 112.512, 499.619 113.091, 499.272 113.698, 498.972 114.328, 498.723 114.973, 498.527 115.629, 498.386 116.289, 498.300 116.945, 498.272 117.593, 498.300 118.226, 498.386 118.838, 498.527 119.422, 498.723 119.974, 498.972 120.488, 499.272 120.959, 499.619 121.382, 500.010 121.754, 500.442 122.071, 500.910 " />
            <path fill="none" stroke-width="3.0" stroke-linecap="butt" stroke-opacity="1.0" stroke="rgb(0, 0, 0)" stroke-linejoin="round" d=" M 843.715, 418.379 845.781, 408.594 846.713, 404.178 849.369, 399.975 851.923, 395.935 854.769, 391.432 862.506, 385.097 867.070, 381.361 876.289, 377.487 882.413, 374.915 892.328, 373.614 899.321, 372.697 909.321, 372.697 919.321, 372.697 929.321, 372.697 939.321, 372.697 949.321, 372.697 959.321, 372.697 969.321, 372.697 979.321, 372.697 989.321, 372.697 999.321, 372.697 1009.321, 372.697 1019.321, 372.697 1020.678, 372.697 1030.593, 373.997 1037.586, 374.915 1046.806, 378.788 1052.930, 381.361 1060.667, 387.696 1065.231, 391.432 1068.076, 395.935 1070.630, 399.975 1073.287, 404.178 1075.353, 413.962 1076.285, 418.379 1075.052, 425.740 1074.936, 426.430 1073.907, 432.573 1073.893, 432.655 1069.100, 440.832 1066.305, 445.600 1058.705, 452.099 1055.802, 454.581 1054.238, 455.918 1045.060, 459.887 1038.872, 462.563 1028.961, 463.890 1021.736, 464.857 1011.736, 464.857 1001.736, 464.857 991.736, 464.857 981.736, 464.857 971.736, 464.857 961.736, 464.857 951.736, 464.857 941.736, 464.857 931.736, 464.857 921.736, 464.857 911.736, 464.857 901.736, 464.857 898.264, 464.857 888.352, 463.530 881.127, 462.563 871.949, 458.593 865.762, 455.918 864.198, 454.581 856.598, 448.082 853.694, 445.600 850.900, 440.832 846.106, 432.655 846.093, 432.573 845.063, 426.430 844.948, 425.740 843.715, 418.379 " />
            <path fill="none" stroke-width="3.0" stroke-linecap="butt" stroke-opacity="1.0" stroke="rgb(0, 0, 0)" stroke-linejoin="round" d=" M 1608.453, 807.973 1608.548, 807.959 1609.048, 807.936 1609.553, 807.959 1610.058, 808.029 1610.559, 808.144 1611.051, 808.304 1611.528, 808.506 1611.987, 808.750 1612.424, 809.033 1612.833, 809.351 1613.210, 809.702 1613.553, 810.083 1613.859, 810.490 1614.123, 810.919 1614.343, 811.366 1614.458, 811.669 " />
            <path fill="none" stroke-width="3.0" stroke-linecap="butt" stroke-opacity="1.0" stroke="rgb(0, 0, 0)" stroke-linejoin="round" d=" M 305.541, 811.669 305.656, 811.366 305.877, 810.919 306.141, 810.490 306.446, 810.083 306.789, 809.702 307.167, 809.351 307.576, 809.033 308.012, 808.750 308.471, 808.507 308.949, 808.304 309.441, 808.144 309.942, 808.029 310.447, 807.959 310.952, 807.936 311.451, 807.959 311.546, 807.973 " />
            <path fill="none" stroke-width="3.0" stroke-linecap="butt" stroke-opacity="1.0" stroke="rgb(0, 0, 0)" stroke-linejoin="round" d=" M 845.209, 425.740 855.209, 425.740 859.373, 425.740 869.373, 425.740 875.579, 425.740 885.579, 425.740 891.786, 425.740 901.786, 425.740 907.993, 425.740 917.993, 425.740 924.200, 425.740 934.200, 425.740 940.406, 425.740 950.406, 425.740 956.613, 425.740 966.613, 425.740 972.820, 425.740 982.820, 425.740 989.027, 425.740 999.027, 425.740 1005.234, 425.740 1015.234, 425.740 1021.440, 425.740 1031.440, 425.740 1037.647, 425.740 1047.647, 425.740 1053.854, 425.740 1063.854, 425.740 1070.061, 425.740 1074.791, 425.740 " />
            <path fill="none" stroke-width="3.0" stroke-linecap="butt" stroke-opacity="1.0" stroke="rgb(0, 0, 0)" stroke-linejoin="round" d=" M 676.251, 551.316 677.548, 557.224 678.919, 563.472 688.919, 563.472 693.552, 563.472 703.552, 563.472 708.185, 563.472 718.185, 563.472 722.818, 563.472 732.818, 563.472 737.451, 563.472 747.451, 563.472 752.083, 563.472 762.083, 563.472 766.716, 563.472 776.716, 563.472 781.349, 563.472 791.349, 563.472 795.982, 563.472 805.982, 563.472 810.614, 563.472 820.614, 563.472 825.247, 563.472 835.247, 563.472 839.880, 563.472 849.880, 563.472 854.513, 563.472 864.513, 563.472 869.146, 563.472 879.146, 563.472 883.778, 563.472 893.778, 563.472 898.411, 563.472 908.411, 563.472 913.044, 563.472 923.044, 563.472 927.677, 563.472 937.677, 563.472 942.309, 563.472 952.309, 563.472 956.942, 563.472 966.942, 563.472 971.575, 563.472 981.575, 563.472 986.208, 563.472 996.208, 563.472 1000.841, 563.472 1010.841, 563.472 1015.473, 563.472 1025.473, 563.472 1030.106, 563.472 1040.106, 563.472 1044.739, 563.472 1054.739, 563.472 1059.372, 563.472 1069.372, 563.472 1074.004, 563.472 1084.004, 563.472 1088.637, 563.472 1098.637, 563.472 1103.270, 563.472 1113.270, 563.472 1117.903, 563.472 1127.903, 563.472 1132.536, 563.472 1142.536, 563.472 1147.168, 563.472 1157.168, 563.472 1161.801, 563.472 1171.801, 563.472 1176.434, 563.472 1186.434, 563.472 1191.067, 563.472 1201.067, 563.472 1205.699, 563.472 1215.699, 563.472 1220.332, 563.472 1230.332, 563.472 1234.965, 563.472 1244.965, 563.472 1249.598, 563.472 1259.598, 563.472 1264.231, 563.472 1274.231, 563.472 1278.863, 563.472 1288.863, 563.472 1293.496, 563.472 1303.496, 563.472 1308.129, 563.472 1318.129, 563.472 1322.762, 563.472 1332.762, 563.472 1337.394, 563.472 1347.394, 563.472 1352.027, 563.472 1362.027, 563.472 1366.660, 563.472 1376.660, 563.472 1381.293, 563.472 1391.293, 563.472 1395.925, 563.472 1405.925, 563.472 1410.558, 563.472 1420.558, 563.472 1425.191, 563.472 1435.191, 563.472 1439.824, 563.472 1449.824, 563.472 1454.457, 563.472 1464.457, 563.472 1469.089, 563.472 1479.089, 563.472 1483.722, 563.472 1493.722, 563.472 1498.355, 563.472 1508.355, 563.472 1512.988, 563.472 1522.988, 563.472 1527.621, 563.472 1537.621, 563.472 1542.253, 563.472 1552.253, 563.472 1556.886, 563.472 1566.886, 563.472 1571.519, 563.472 1581.519, 563.472 1586.152, 563.472 1596.152, 563.472 1600.784, 563.472 1610.784, 563.472 1615.417, 563.472 1625.417, 563.472 1630.050, 563.472 1640.050, 563.472 1644.683, 563.472 1648.024, 557.224 1651.183, 551.316 " />
            <path fill="none" stroke-width="3.0" stroke-linecap="butt" stroke-opacity="1.0" stroke="rgb(0, 0, 0)" stroke-linejoin="round" d=" M 1069.100, 440.832 1068.889, 440.832 1058.889, 440.832 1052.855, 440.832 1042.855, 440.832 1036.821, 440.832 1026.821, 440.832 1020.786, 440.832 1010.786, 440.832 1004.752, 440.832 994.752, 440.832 988.718, 440.832 978.718, 440.832 972.684, 440.832 962.684, 440.832 956.649, 440.832 946.649, 440.832 940.615, 440.832 930.615, 440.832 924.581, 440.832 914.581, 440.832 908.546, 440.832 898.546, 440.832 892.512, 440.832 882.512, 440.832 876.478, 440.832 866.478, 440.832 860.444, 440.832 850.900, 440.832 " />
        </g>
    </g>
</svg>
