<?xml version='1.0' encoding='ascii'?>
<svg xmlns="http://www.w3.org/2000/svg" version="1.1" width="1920" height="1080">
    <g id="ViewLayer_LineSet" xmlns:inkscape="http://www.inkscape.org/namespaces/inkscape" inkscape:groupmode="lineset" inkscape:label="ViewLayer_LineSet">
        <g xmlns:inkscape="http://www.inkscape.org/namespaces/inkscape" inkscape:groupmode="layer" id="strokes" inkscape:label="strokes">
            <path fill="none" stroke-width="3.0" stroke-linecap="butt" stroke-opacity="1.0" stroke="rgb(0, 0, 0)" stroke-linejoin="round" d=" M 1028.373, 520.422 1035.628, 527.331 1040.345, 536.148 1041.221, 537.786 1042.862, 547.651 1043.149, 549.377 1041.508, 559.241 1041.221, 560.967 1036.504, 569.784 1035.628, 571.422 1028.386, 578.319 1026.915, 579.720 1017.918, 584.086 1015.937, 585.048 1015.937, 585.048 1006.048, 586.539 1003.767, 586.883 1003.767, 586.883 " />
            <path fill="none" stroke-width="3.0" stroke-linecap="butt" stroke-opacity="1.0" stroke="rgb(0, 0, 0)" stroke-linejoin="round" d=" M 1003.767, 511.870 1003.767, 511.870 1011.249, 512.998 1011.249, 512.999 1015.937, 513.706 1024.933, 518.071 1026.915, 519.033 1028.373, 520.422 1028.373, 520.422 " />
            <path fill="none" stroke-width="3.0" stroke-linecap="butt" stroke-opacity="1.0" stroke="rgb(0, 0, 0)" stroke-linejoin="round" d=" M 1616.377, 630.208 1616.377, 630.208 " />
            <path fill="none" stroke-width="3.0" stroke-linecap="butt" stroke-opacity="1.0" stroke="rgb(0, 0, 0)" stroke-linejoin="round" d=" M 1616.380, 630.208 1616.380, 620.208 1616.380, 610.208 1616.380, 600.208 1616.380, 590.208 1616.380, 580.208 1616.380, 570.208 1616.380, 560.208 1616.380, 550.208 1616.380, 540.208 1616.380, 530.208 1616.380, 520.208 1616.380, 510.208 1616.380, 505.185 1616.380, 495.185 1616.380, 485.185 1616.380, 480.181 1616.380, 470.804 1606.380, 470.804 1596.380, 470.804 1586.380, 470.804 1576.380, 470.804 1566.380, 470.804 1556.380, 470.804 1546.380, 470.804 1536.380, 470.804 1526.380, 470.804 1516.380, 470.804 1506.380, 470.804 1496.380, 470.804 1486.380, 470.804 1476.380, 470.804 1466.380, 470.804 1456.380, 470.804 1446.380, 470.804 1436.380, 470.804 1426.380, 470.804 1416.380, 470.804 1406.380, 470.804 1396.380, 470.804 1386.380, 470.804 1376.380, 470.804 1366.380, 470.804 1356.380, 470.804 1346.380, 470.804 1336.380, 470.804 1326.380, 470.804 1316.380, 470.804 1306.380, 470.804 1296.380, 470.804 1286.380, 470.804 1276.380, 470.804 1266.380, 470.804 1256.380, 470.804 1246.380, 470.804 1236.380, 470.804 1226.380, 470.804 1216.380, 470.804 1206.380, 470.804 1196.380, 470.804 1186.380, 470.804 1176.380, 470.804 1166.380, 470.804 1156.380, 470.804 1146.380, 470.804 1136.380, 470.804 1126.380, 470.803 1116.380, 470.803 1106.380, 470.803 1096.380, 470.803 1086.380, 470.803 1076.380, 470.803 1066.380, 470.803 1056.380, 470.803 1046.380, 470.803 1036.380, 470.803 1026.380, 470.803 1016.380, 470.803 1006.380, 470.803 996.380, 470.803 986.380, 470.803 976.380, 470.803 966.380, 470.803 956.380, 470.803 946.380, 470.803 936.380, 470.803 926.380, 470.803 916.380, 470.803 906.380, 470.803 896.380, 470.803 886.380, 470.803 876.380, 470.803 866.380, 470.803 856.380, 470.803 846.380, 470.803 836.380, 470.803 826.380, 470.803 816.380, 470.803 806.380, 470.803 796.380, 470.803 786.380, 470.803 776.380, 470.803 766.380, 470.803 756.380, 470.803 746.380, 470.803 736.380, 470.803 726.380, 470.803 716.380, 470.803 706.380, 470.803 696.380, 470.803 686.380, 470.803 676.380, 470.803 666.380, 470.803 656.380, 470.803 646.380, 470.803 636.380, 470.803 626.380, 470.803 616.380, 470.803 606.380, 470.803 596.380, 470.803 586.380, 470.803 576.380, 470.803 566.380, 470.803 556.380, 470.803 546.380, 470.803 536.380, 470.803 526.380, 470.803 516.380, 470.803 506.380, 470.803 496.380, 470.803 486.380, 470.803 476.380, 470.803 466.380, 470.803 456.380, 470.803 446.380, 470.803 436.380, 470.803 426.380, 470.803 416.380, 470.803 406.380, 470.803 396.380, 470.803 386.380, 470.803 376.380, 470.803 366.380, 470.803 356.380, 470.803 346.380, 470.803 336.380, 470.803 326.380, 470.803 303.644, 470.803 303.641, 470.803 303.641, 480.179 303.641, 490.179 303.641, 500.179 303.641, 505.184 303.641, 515.184 303.641, 525.184 303.641, 535.184 303.641, 545.184 303.641, 555.184 303.641, 565.184 303.641, 575.184 303.641, 585.184 303.641, 595.184 303.641, 605.184 303.641, 615.184 303.641, 625.184 303.641, 630.206 313.641, 630.206 323.641, 630.206 333.641, 630.206 334.897, 630.206 " />
            <path fill="none" stroke-width="3.0" stroke-linecap="butt" stroke-opacity="1.0" stroke="rgb(0, 0, 0)" stroke-linejoin="round" d=" M 1003.767, 586.883 993.767, 586.883 983.767, 586.883 973.767, 586.883 963.767, 586.883 953.767, 586.883 943.767, 586.883 933.767, 586.883 923.767, 586.883 916.251, 586.883 916.251, 586.883 " />
            <path fill="none" stroke-width="3.0" stroke-linecap="butt" stroke-opacity="1.0" stroke="rgb(0, 0, 0)" stroke-linejoin="round" d=" M 303.641, 630.206 313.641, 630.206 323.641, 630.206 333.641, 630.206 334.897, 630.206 334.897, 630.206 344.897, 630.206 354.897, 630.206 364.897, 630.206 374.897, 630.206 384.897, 630.206 394.897, 630.206 404.897, 630.206 414.897, 630.206 424.897, 630.206 434.897, 630.206 444.897, 630.206 454.897, 630.206 464.897, 630.207 474.897, 630.207 484.897, 630.207 494.897, 630.207 504.897, 630.207 514.897, 630.207 524.897, 630.207 534.897, 630.207 544.897, 630.207 554.897, 630.207 564.897, 630.207 574.897, 630.207 584.897, 630.207 594.897, 630.207 604.897, 630.207 614.897, 630.207 624.897, 630.207 634.897, 630.207 644.897, 630.207 654.897, 630.207 664.897, 630.207 674.897, 630.207 684.897, 630.207 694.897, 630.207 704.897, 630.207 714.897, 630.207 724.897, 630.207 734.897, 630.207 744.897, 630.207 754.897, 630.207 764.897, 630.207 774.897, 630.207 784.897, 630.207 794.897, 630.207 804.897, 630.207 814.897, 630.207 824.897, 630.207 834.897, 630.207 844.897, 630.207 854.897, 630.207 864.897, 630.207 874.897, 630.207 884.897, 630.207 894.897, 630.207 904.897, 630.207 914.897, 630.207 924.897, 630.207 934.897, 630.207 944.897, 630.207 954.897, 630.207 964.897, 630.207 974.897, 630.207 984.897, 630.207 994.897, 630.207 1004.897, 630.207 1014.897, 630.207 1024.897, 630.207 1034.897, 630.207 1044.897, 630.207 1054.897, 630.207 1064.897, 630.207 1074.897, 630.207 1084.897, 630.207 1094.897, 630.207 1104.897, 630.207 1114.897, 630.207 1124.897, 630.207 1134.897, 630.207 1144.897, 630.207 1154.897, 630.207 1164.897, 630.207 1174.897, 630.207 1184.897, 630.207 1194.897, 630.207 1204.897, 630.207 1214.897, 630.207 1224.897, 630.207 1234.897, 630.207 1244.897, 630.207 1254.897, 630.207 1264.897, 630.207 1274.897, 630.207 1284.897, 630.207 1294.897, 630.207 1304.897, 630.207 1314.897, 630.207 1324.897, 630.207 1334.897, 630.207 1344.897, 630.207 1354.897, 630.207 1364.897, 630.207 1374.897, 630.207 1384.897, 630.207 1394.897, 630.207 1404.897, 630.207 1414.897, 630.207 1424.897, 630.207 1434.897, 630.207 1444.897, 630.207 1454.897, 630.207 1464.897, 630.207 1474.897, 630.207 1484.897, 630.207 1494.897, 630.207 1504.897, 630.207 1514.897, 630.208 1524.897, 630.208 1534.897, 630.208 1544.897, 630.208 1554.897, 630.208 1564.897, 630.208 1574.897, 630.208 1584.897, 630.208 1594.897, 630.208 1616.377, 630.208 1616.380, 630.208 " />
            <path fill="none" stroke-width="3.0" stroke-linecap="butt" stroke-opacity="1.0" stroke="rgb(0, 0, 0)" stroke-linejoin="round" d=" M 1585.124, 470.804 1585.124, 470.804 1585.124, 470.804 1585.122, 470.804 1585.122, 470.804 " />
            <path fill="none" stroke-width="3.0" stroke-linecap="butt" stroke-opacity="1.0" stroke="rgb(0, 0, 0)" stroke-linejoin="round" d=" M 1616.380, 470.804 1616.377, 470.804 " />
            <path fill="none" stroke-width="3.0" stroke-linecap="butt" stroke-opacity="1.0" stroke="rgb(0, 0, 0)" stroke-linejoin="round" d=" M 303.641, 470.803 313.641, 470.803 323.641, 470.803 333.641, 470.803 334.897, 470.803 344.897, 470.803 354.897, 470.803 364.897, 470.803 374.897, 470.803 384.897, 470.803 394.897, 470.803 404.897, 470.803 414.897, 470.803 424.897, 470.803 434.897, 470.803 444.897, 470.803 454.897, 470.803 464.897, 470.803 474.897, 470.803 484.897, 470.803 494.897, 470.803 504.897, 470.803 514.897, 470.803 524.897, 470.803 534.897, 470.803 544.897, 470.803 554.897, 470.803 564.897, 470.803 574.897, 470.803 584.897, 470.803 594.897, 470.803 604.897, 470.803 614.897, 470.803 624.897, 470.803 634.897, 470.803 644.897, 470.803 654.897, 470.803 664.897, 470.803 674.897, 470.803 684.897, 470.803 694.897, 470.803 704.897, 470.803 714.897, 470.803 724.897, 470.803 734.897, 470.803 744.897, 470.803 754.897, 470.803 764.897, 470.803 774.897, 470.803 784.897, 470.803 794.897, 470.803 804.897, 470.803 814.897, 470.803 824.897, 470.803 834.897, 470.803 844.897, 470.803 854.897, 470.803 864.897, 470.803 874.897, 470.803 884.897, 470.803 894.897, 470.803 904.897, 470.803 914.897, 470.803 924.897, 470.803 934.897, 470.803 944.897, 470.803 954.897, 470.803 964.897, 470.803 974.897, 470.803 984.897, 470.803 994.897, 470.803 1004.897, 470.803 1014.897, 470.803 1024.897, 470.803 1034.897, 470.803 1044.897, 470.803 1054.897, 470.803 1064.897, 470.803 1074.897, 470.803 1084.897, 470.804 1094.897, 470.804 1104.897, 470.804 1114.897, 470.804 1124.897, 470.804 1134.897, 470.804 1144.897, 470.804 1154.897, 470.804 1164.897, 470.804 1174.897, 470.804 1184.897, 470.804 1194.897, 470.804 1204.897, 470.804 1214.897, 470.804 1224.897, 470.804 1234.897, 470.804 1244.897, 470.804 1254.897, 470.804 1264.897, 470.804 1274.897, 470.804 1284.897, 470.804 1294.897, 470.804 1304.897, 470.804 1314.897, 470.804 1324.897, 470.804 1334.897, 470.804 1344.897, 470.804 1354.897, 470.804 1364.897, 470.804 1374.897, 470.804 1384.897, 470.804 1394.897, 470.804 1404.897, 470.804 1414.897, 470.804 1424.897, 470.804 1434.897, 470.804 1444.897, 470.804 1454.897, 470.804 1464.897, 470.804 1474.897, 470.804 1484.897, 470.804 1494.897, 470.804 1504.897, 470.804 1514.897, 470.804 1524.897, 470.804 1534.897, 470.804 1544.897, 470.804 1554.897, 470.804 1564.897, 470.804 1585.122, 470.804 1585.124, 470.804 1595.124, 470.804 1605.124, 470.804 1615.124, 470.804 1616.377, 470.804 1616.377, 480.181 1616.377, 490.181 1616.377, 500.181 1616.377, 505.185 1616.377, 515.185 1616.377, 525.185 1616.377, 535.185 1616.377, 545.185 1616.377, 555.185 1616.377, 565.185 1616.377, 575.185 1616.377, 585.185 1616.377, 595.185 1616.377, 605.185 1616.377, 615.185 1616.377, 625.185 1616.377, 630.208 " />
            <path fill="none" stroke-width="3.0" stroke-linecap="butt" stroke-opacity="1.0" stroke="rgb(0, 0, 0)" stroke-linejoin="round" d=" M 1616.377, 470.804 1606.377, 470.804 1596.377, 470.804 1586.377, 470.804 1585.124, 470.804 1585.122, 470.804 1575.122, 470.804 1565.122, 470.804 1555.122, 470.804 1545.122, 470.804 1535.122, 470.804 1525.122, 470.804 1515.122, 470.804 1505.122, 470.804 1495.122, 470.804 1485.122, 470.804 1475.122, 470.804 1465.122, 470.804 1455.122, 470.804 1445.122, 470.804 1435.122, 470.804 1425.122, 470.804 1415.122, 470.804 1405.122, 470.804 1395.122, 470.804 1385.122, 470.804 1375.122, 470.804 1365.122, 470.804 1355.122, 470.804 1345.122, 470.804 1335.122, 470.804 1325.122, 470.804 1315.122, 470.804 1305.122, 470.804 1295.122, 470.804 1285.122, 470.804 1275.122, 470.804 1265.122, 470.804 1255.122, 470.804 1245.122, 470.804 1235.122, 470.804 1225.122, 470.804 1215.122, 470.804 1205.122, 470.804 1195.122, 470.804 1185.122, 470.804 1175.122, 470.804 1165.122, 470.804 1155.122, 470.804 1145.122, 470.804 1135.122, 470.804 1125.122, 470.804 1115.122, 470.804 1105.122, 470.804 1095.122, 470.804 1085.122, 470.804 1075.122, 470.803 1065.122, 470.803 1055.122, 470.803 1045.122, 470.803 1035.122, 470.803 1025.122, 470.803 1015.122, 470.803 1005.122, 470.803 995.122, 470.803 985.122, 470.803 975.122, 470.803 965.122, 470.803 955.122, 470.803 945.122, 470.803 935.122, 470.803 925.122, 470.803 915.122, 470.803 905.122, 470.803 895.122, 470.803 885.122, 470.803 875.122, 470.803 865.122, 470.803 855.122, 470.803 845.122, 470.803 835.122, 470.803 825.122, 470.803 815.122, 470.803 805.122, 470.803 795.122, 470.803 785.122, 470.803 775.122, 470.803 765.122, 470.803 755.122, 470.803 745.122, 470.803 735.122, 470.803 725.122, 470.803 715.122, 470.803 705.122, 470.803 695.122, 470.803 685.122, 470.803 675.122, 470.803 665.122, 470.803 655.122, 470.803 645.122, 470.803 635.122, 470.803 625.122, 470.803 615.122, 470.803 605.122, 470.803 595.122, 470.803 585.122, 470.803 575.122, 470.803 565.122, 470.803 555.122, 470.803 545.122, 470.803 535.122, 470.803 525.122, 470.803 515.122, 470.803 505.122, 470.803 495.122, 470.803 485.122, 470.803 475.122, 470.803 465.122, 470.803 455.122, 470.803 445.122, 470.803 435.122, 470.803 425.122, 470.803 415.122, 470.803 405.122, 470.803 395.122, 470.803 385.122, 470.803 375.122, 470.803 365.122, 470.803 355.122, 470.803 334.900, 470.803 334.897, 470.803 334.897, 470.803 " />
            <path fill="none" stroke-width="3.0" stroke-linecap="butt" stroke-opacity="1.0" stroke="rgb(0, 0, 0)" stroke-linejoin="round" d=" M 334.900, 470.803 334.897, 470.803 344.897, 470.803 354.897, 470.803 364.897, 470.803 374.897, 470.803 384.897, 470.803 394.897, 470.803 404.897, 470.803 414.897, 470.803 424.897, 470.803 434.897, 470.803 444.897, 470.803 454.897, 470.803 464.897, 470.803 474.897, 470.803 484.897, 470.803 494.897, 470.803 504.897, 470.803 514.897, 470.803 524.897, 470.803 534.897, 470.803 544.897, 470.803 554.897, 470.803 564.897, 470.803 574.897, 470.803 584.897, 470.803 594.897, 470.803 604.897, 470.803 614.897, 470.803 624.897, 470.803 634.897, 470.803 644.897, 470.803 654.897, 470.803 664.897, 470.803 674.897, 470.803 684.897, 470.803 694.897, 470.803 704.897, 470.803 714.897, 470.803 724.897, 470.803 734.897, 470.803 744.897, 470.803 754.897, 470.803 764.897, 470.803 774.897, 470.803 784.897, 470.803 794.897, 470.803 804.897, 470.803 814.897, 470.803 824.897, 470.803 834.897, 470.803 844.897, 470.803 854.897, 470.803 864.897, 470.803 874.897, 470.803 884.897, 470.803 894.897, 470.803 904.897, 470.803 914.897, 470.803 924.897, 470.803 934.897, 470.803 944.897, 470.803 954.897, 470.803 964.897, 470.803 974.897, 470.803 984.897, 470.803 994.897, 470.803 1004.897, 470.803 1014.897, 470.803 1024.897, 470.803 1034.897, 470.803 1044.897, 470.803 1054.897, 470.803 1064.897, 470.803 1074.897, 470.803 1084.897, 470.804 1094.897, 470.804 1104.897, 470.804 1114.897, 470.804 1124.897, 470.804 1134.897, 470.804 1144.897, 470.804 1154.897, 470.804 1164.897, 470.804 1174.897, 470.804 1184.897, 470.804 1194.897, 470.804 1204.897, 470.804 1214.897, 470.804 1224.897, 470.804 1234.897, 470.804 1244.897, 470.804 1254.897, 470.804 1264.897, 470.804 1274.897, 470.804 1284.897, 470.804 1294.897, 470.804 1304.897, 470.804 1314.897, 470.804 1324.897, 470.804 1334.897, 470.804 1344.897, 470.804 1354.897, 470.804 1364.897, 470.804 1374.897, 470.804 1384.897, 470.804 1394.897, 470.804 1404.897, 470.804 1414.897, 470.804 1424.897, 470.804 1434.897, 470.804 1444.897, 470.804 1454.897, 470.804 1464.897, 470.804 1474.897, 470.804 1484.897, 470.804 1494.897, 470.804 1504.897, 470.804 1514.897, 470.804 1524.897, 470.804 1534.897, 470.804 1544.897, 470.804 1554.897, 470.804 1564.897, 470.804 1585.121, 470.804 " />
            <path fill="none" stroke-width="3.0" stroke-linecap="butt" stroke-opacity="1.0" stroke="rgb(0, 0, 0)" stroke-linejoin="round" d=" M 334.897, 630.206 334.897, 630.206 344.897, 630.206 354.897, 630.206 364.897, 630.206 374.897, 630.206 384.897, 630.206 394.897, 630.206 404.897, 630.206 414.897, 630.206 424.897, 630.206 434.897, 630.206 444.897, 630.206 454.897, 630.207 464.897, 630.207 474.897, 630.207 484.897, 630.207 494.897, 630.207 504.897, 630.207 514.897, 630.207 524.897, 630.207 534.897, 630.207 544.897, 630.207 554.897, 630.207 564.897, 630.207 574.897, 630.207 584.897, 630.207 594.897, 630.207 604.897, 630.207 614.897, 630.207 624.897, 630.207 634.897, 630.207 644.897, 630.207 654.897, 630.207 664.897, 630.207 674.897, 630.207 684.897, 630.207 694.897, 630.207 704.897, 630.207 714.897, 630.207 724.897, 630.207 734.897, 630.207 744.897, 630.207 754.897, 630.207 764.897, 630.207 774.897, 630.207 784.897, 630.207 794.897, 630.207 804.897, 630.207 814.897, 630.207 824.897, 630.207 834.897, 630.207 844.897, 630.207 854.897, 630.207 864.897, 630.207 874.897, 630.207 884.897, 630.207 894.897, 630.207 904.897, 630.207 914.897, 630.207 924.897, 630.207 934.897, 630.207 944.897, 630.207 954.897, 630.207 964.897, 630.207 974.897, 630.207 984.897, 630.207 994.897, 630.207 1004.897, 630.207 1014.897, 630.207 1024.897, 630.207 1034.897, 630.207 1044.897, 630.207 1054.897, 630.207 1064.897, 630.207 1074.897, 630.207 1084.897, 630.207 1094.897, 630.207 1104.897, 630.207 1114.897, 630.207 1124.897, 630.207 1134.897, 630.207 1144.897, 630.207 1154.897, 630.207 1164.897, 630.207 1174.897, 630.207 1184.897, 630.207 1194.897, 630.207 1204.897, 630.207 1214.897, 630.207 1224.897, 630.207 1234.897, 630.207 1244.897, 630.207 1254.897, 630.207 1264.897, 630.207 1274.897, 630.207 1284.897, 630.207 1294.897, 630.207 1304.897, 630.207 1314.897, 630.207 1324.897, 630.207 1334.897, 630.207 1344.897, 630.207 1354.897, 630.207 1364.897, 630.207 1374.897, 630.207 1384.897, 630.207 1394.897, 630.207 1404.897, 630.207 1414.897, 630.207 1424.897, 630.207 1434.897, 630.207 1444.897, 630.207 1454.897, 630.207 1464.897, 630.207 1474.897, 630.207 1484.897, 630.207 1494.897, 630.207 1504.897, 630.207 1514.897, 630.208 1524.897, 630.208 1534.897, 630.208 1544.897, 630.208 1554.897, 630.208 1564.897, 630.208 1574.897, 630.208 1584.897, 630.208 1594.897, 630.208 1616.377, 630.208 " />
            <path fill="none" stroke-width="3.0" stroke-linecap="butt" stroke-opacity="1.0" stroke="rgb(0, 0, 0)" stroke-linejoin="round" d=" M 1616.377, 630.208 1616.380, 630.208 1616.377, 630.208 " />
            <path fill="none" stroke-width="3.0" stroke-linecap="butt" stroke-opacity="1.0" stroke="rgb(0, 0, 0)" stroke-linejoin="round" d=" M 1003.767, 586.883 993.767, 586.883 983.767, 586.883 973.767, 586.883 963.767, 586.883 953.767, 586.883 943.767, 586.883 933.767, 586.883 923.767, 586.883 916.251, 586.883 916.251, 586.883 " />
            <path fill="none" stroke-width="3.0" stroke-linecap="butt" stroke-opacity="1.0" stroke="rgb(0, 0, 0)" stroke-linejoin="round" d=" M 334.900, 470.803 334.900, 470.803 344.900, 470.803 354.900, 470.803 364.900, 470.803 374.900, 470.803 384.900, 470.803 394.900, 470.803 404.900, 470.803 414.900, 470.803 424.900, 470.803 434.900, 470.803 444.900, 470.803 454.900, 470.803 464.900, 470.803 474.900, 470.803 484.900, 470.803 494.900, 470.803 504.900, 470.803 514.900, 470.803 524.900, 470.803 534.900, 470.803 544.900, 470.803 554.900, 470.803 564.900, 470.803 574.900, 470.803 584.900, 470.803 594.900, 470.803 604.900, 470.803 614.900, 470.803 624.900, 470.803 634.900, 470.803 644.900, 470.803 654.900, 470.803 664.900, 470.803 674.900, 470.803 684.900, 470.803 694.900, 470.803 704.900, 470.803 714.900, 470.803 724.900, 470.803 734.900, 470.803 744.900, 470.803 754.900, 470.803 764.900, 470.803 774.900, 470.803 784.900, 470.803 794.900, 470.803 804.900, 470.803 814.900, 470.803 824.900, 470.803 834.900, 470.803 844.900, 470.803 854.900, 470.803 864.900, 470.803 874.900, 470.803 884.900, 470.803 894.900, 470.803 904.900, 470.803 914.900, 470.803 924.900, 470.803 934.900, 470.803 944.900, 470.803 954.900, 470.803 964.900, 470.803 974.900, 470.803 984.900, 470.803 994.900, 470.803 1004.900, 470.803 1014.900, 470.803 1024.900, 470.803 1034.900, 470.803 1044.900, 470.803 1054.900, 470.803 1064.900, 470.803 1074.900, 470.803 1084.900, 470.803 1094.900, 470.803 1104.900, 470.803 1114.900, 470.803 1124.900, 470.804 1134.900, 470.804 1144.900, 470.804 1154.900, 470.804 1164.900, 470.804 1174.900, 470.804 1184.900, 470.804 1194.900, 470.804 1204.900, 470.804 1214.900, 470.804 1224.900, 470.804 1234.900, 470.804 1244.900, 470.804 1254.900, 470.804 1264.900, 470.804 1274.900, 470.804 1284.900, 470.804 1294.900, 470.804 1304.900, 470.804 1314.900, 470.804 1324.900, 470.804 1334.900, 470.804 1344.900, 470.804 1354.900, 470.804 1364.900, 470.804 1374.900, 470.804 1384.900, 470.804 1394.900, 470.804 1404.900, 470.804 1414.900, 470.804 1424.900, 470.804 1434.900, 470.804 1444.900, 470.804 1454.900, 470.804 1464.900, 470.804 1474.900, 470.804 1484.900, 470.804 1494.900, 470.804 1504.900, 470.804 1514.900, 470.804 1524.900, 470.804 1534.900, 470.804 1544.900, 470.804 1554.900, 470.804 1564.900, 470.804 1585.124, 470.804 " />
            <path fill="none" stroke-width="3.0" stroke-linecap="butt" stroke-opacity="1.0" stroke="rgb(0, 0, 0)" stroke-linejoin="round" d=" M 1028.373, 520.422 1026.915, 519.033 1017.918, 514.667 1015.936, 513.706 1011.249, 512.999 1003.767, 511.870 1003.767, 511.870 993.767, 511.870 983.767, 511.870 973.767, 511.870 963.767, 511.870 953.767, 511.870 943.767, 511.870 933.767, 511.870 923.767, 511.870 916.251, 511.870 908.769, 512.998 908.768, 512.998 904.081, 513.705 895.085, 518.071 893.103, 519.033 891.645, 520.422 " />
            <path fill="none" stroke-width="3.0" stroke-linecap="butt" stroke-opacity="1.0" stroke="rgb(0, 0, 0)" stroke-linejoin="round" d=" M 891.645, 520.422 884.390, 527.331 879.673, 536.148 878.796, 537.786 877.156, 547.651 876.869, 549.376 878.509, 559.241 878.796, 560.967 883.514, 569.784 884.390, 571.422 891.632, 578.319 893.103, 579.720 902.099, 584.086 904.081, 585.047 913.969, 586.539 916.251, 586.883 916.251, 586.883 916.251, 586.883 926.251, 586.883 936.251, 586.883 946.251, 586.883 956.251, 586.883 966.251, 586.883 976.251, 586.883 986.251, 586.883 996.251, 586.883 1003.767, 586.883 1003.767, 586.883 1013.655, 585.392 1015.937, 585.048 " />
            <path fill="none" stroke-width="3.0" stroke-linecap="butt" stroke-opacity="1.0" stroke="rgb(0, 0, 0)" stroke-linejoin="round" d=" M 916.251, 511.870 916.251, 511.870 " />
            <path fill="none" stroke-width="3.0" stroke-linecap="butt" stroke-opacity="1.0" stroke="rgb(0, 0, 0)" stroke-linejoin="round" d=" M 1003.767, 586.883 1013.655, 585.392 1015.936, 585.048 1024.933, 580.682 1026.915, 579.720 1034.156, 572.824 1035.627, 571.422 1040.345, 562.605 1041.221, 560.967 1042.862, 551.102 1043.149, 549.377 1041.508, 539.512 1041.221, 537.786 1036.504, 528.969 1035.627, 527.331 1028.373, 520.422 1028.373, 520.422 " />
            <path fill="none" stroke-width="3.0" stroke-linecap="butt" stroke-opacity="1.0" stroke="rgb(0, 0, 0)" stroke-linejoin="round" d=" M 891.645, 520.422 891.645, 520.422 " />
            <path fill="none" stroke-width="3.0" stroke-linecap="butt" stroke-opacity="1.0" stroke="rgb(0, 0, 0)" stroke-linejoin="round" d=" M 891.645, 520.422 891.645, 520.422 " />
            <path fill="none" stroke-width="3.0" stroke-linecap="butt" stroke-opacity="1.0" stroke="rgb(0, 0, 0)" stroke-linejoin="round" d=" M 891.645, 520.422 891.645, 520.422 " />
            <path fill="none" stroke-width="3.0" stroke-linecap="butt" stroke-opacity="1.0" stroke="rgb(0, 0, 0)" stroke-linejoin="round" d=" M 891.645, 520.422 891.645, 520.422 " />
            <path fill="none" stroke-width="3.0" stroke-linecap="butt" stroke-opacity="1.0" stroke="rgb(0, 0, 0)" stroke-linejoin="round" d=" M 891.645, 520.422 891.645, 520.422 " />
            <path fill="none" stroke-width="3.0" stroke-linecap="butt" stroke-opacity="1.0" stroke="rgb(0, 0, 0)" stroke-linejoin="round" d=" M 1028.373, 520.422 1028.373, 520.422 1028.373, 520.422 " />
            <path fill="none" stroke-width="3.0" stroke-linecap="butt" stroke-opacity="1.0" stroke="rgb(0, 0, 0)" stroke-linejoin="round" d=" M 1028.373, 520.422 1028.373, 520.422 1028.373, 520.422 " />
            <path fill="none" stroke-width="3.0" stroke-linecap="butt" stroke-opacity="1.0" stroke="rgb(0, 0, 0)" stroke-linejoin="round" d=" M 1028.373, 520.422 1028.373, 520.422 " />
            <path fill="none" stroke-width="3.0" stroke-linecap="butt" stroke-opacity="1.0" stroke="rgb(0, 0, 0)" stroke-linejoin="round" d=" M 1028.373, 520.422 1028.373, 520.422 1028.373, 520.422 " />
            <path fill="none" stroke-width="3.0" stroke-linecap="butt" stroke-opacity="1.0" stroke="rgb(0, 0, 0)" stroke-linejoin="round" d=" M 1028.373, 520.422 1028.373, 520.422 " />
            <path fill="none" stroke-width="3.0" stroke-linecap="butt" stroke-opacity="1.0" stroke="rgb(0, 0, 0)" stroke-linejoin="round" d=" M 1028.373, 520.422 1028.373, 520.422 1028.373, 520.422 " />
            <path fill="none" stroke-width="3.0" stroke-linecap="butt" stroke-opacity="1.0" stroke="rgb(0, 0, 0)" stroke-linejoin="round" d=" M 1028.373, 520.422 1028.373, 520.422 " />
            <path fill="none" stroke-width="3.0" stroke-linecap="butt" stroke-opacity="1.0" stroke="rgb(0, 0, 0)" stroke-linejoin="round" d=" M 1011.249, 512.999 1011.249, 512.999 " />
        </g>
    </g>
</svg>
