<?xml version='1.0' encoding='ascii'?>
<svg xmlns="http://www.w3.org/2000/svg" version="1.1" width="1920" height="1080">
    <g id="ViewLayer_LineSet" xmlns:inkscape="http://www.inkscape.org/namespaces/inkscape" inkscape:groupmode="lineset" inkscape:label="ViewLayer_LineSet">
        <g xmlns:inkscape="http://www.inkscape.org/namespaces/inkscape" inkscape:groupmode="layer" id="strokes" inkscape:label="strokes">
            <path fill="none" stroke-width="3.0" stroke-linecap="butt" stroke-opacity="1.0" stroke="rgb(0, 0, 0)" stroke-linejoin="round" d=" M 1345.486, 470.803 1345.486, 470.803 1335.486, 470.803 1325.486, 470.803 1315.486, 470.803 1305.486, 470.803 1295.486, 470.803 1285.486, 470.803 1275.486, 470.803 1265.486, 470.803 1255.486, 470.803 1245.486, 470.803 1235.486, 470.803 1225.486, 470.803 1215.486, 470.803 1205.486, 470.803 1195.486, 470.803 1185.486, 470.803 1175.486, 470.803 1165.486, 470.803 1155.486, 470.803 1145.486, 470.803 1135.486, 470.803 1125.486, 470.803 1115.486, 470.803 1105.486, 470.803 1095.486, 470.803 1085.486, 470.803 1075.486, 470.803 1065.486, 470.803 1055.486, 470.803 1045.486, 470.803 1035.486, 470.803 1025.486, 470.803 1015.486, 470.803 1005.486, 470.803 995.486, 470.803 985.486, 470.803 975.486, 470.803 965.486, 470.803 955.486, 470.803 945.486, 470.803 935.486, 470.803 925.486, 470.803 915.486, 470.803 905.486, 470.803 895.486, 470.803 885.486, 470.803 875.486, 470.803 865.486, 470.803 855.486, 470.803 845.486, 470.803 835.486, 470.803 825.486, 470.803 815.486, 470.803 805.486, 470.803 795.486, 470.803 785.486, 470.803 775.486, 470.803 765.486, 470.803 755.486, 470.803 745.486, 470.803 735.486, 470.803 725.486, 470.803 715.486, 470.803 705.486, 470.803 695.486, 470.803 685.486, 470.803 675.486, 470.803 665.486, 470.803 657.862, 470.803 657.862, 470.803 657.862, 480.180 657.862, 490.180 657.862, 500.180 657.862, 505.184 657.862, 515.184 657.862, 525.184 657.862, 535.184 657.862, 545.184 657.862, 555.184 657.862, 565.184 657.862, 575.184 657.862, 585.184 657.862, 595.184 657.862, 605.184 657.862, 615.184 657.862, 625.184 657.862, 630.207 667.862, 630.207 668.073, 630.207 678.073, 630.207 680.575, 630.207 689.118, 630.207 " />
            <path fill="none" stroke-width="3.0" stroke-linecap="butt" stroke-opacity="1.0" stroke="rgb(0, 0, 0)" stroke-linejoin="round" d=" M 1314.230, 630.207 1324.230, 630.207 1324.440, 630.207 1334.440, 630.207 1336.943, 630.207 1345.486, 630.207 1345.486, 620.207 1345.486, 610.207 1345.486, 600.207 1345.486, 590.207 1345.486, 580.207 1345.486, 570.207 1345.486, 560.207 1345.486, 550.207 1345.486, 540.207 1345.486, 530.207 1345.486, 520.207 1345.486, 510.207 1345.486, 505.184 1345.486, 495.184 1345.486, 485.184 1345.486, 480.180 1345.486, 470.803 1335.486, 470.803 1325.486, 470.803 1315.486, 470.803 1314.230, 470.803 " />
            <path fill="none" stroke-width="3.0" stroke-linecap="butt" stroke-opacity="1.0" stroke="rgb(0, 0, 0)" stroke-linejoin="round" d=" M 689.118, 470.803 689.118, 470.803 689.118, 470.803 " />
            <path fill="none" stroke-width="3.0" stroke-linecap="butt" stroke-opacity="1.0" stroke="rgb(0, 0, 0)" stroke-linejoin="round" d=" M 689.118, 470.803 699.118, 470.803 709.118, 470.803 719.118, 470.803 729.118, 470.803 739.118, 470.803 749.118, 470.803 759.118, 470.803 769.118, 470.803 779.118, 470.803 789.118, 470.803 799.118, 470.803 809.118, 470.803 819.118, 470.803 829.118, 470.803 839.118, 470.803 849.118, 470.803 859.118, 470.803 869.118, 470.803 879.118, 470.803 889.118, 470.803 899.118, 470.803 909.118, 470.803 919.118, 470.803 929.118, 470.803 939.118, 470.803 949.118, 470.803 959.118, 470.803 969.118, 470.803 979.118, 470.803 989.118, 470.803 999.118, 470.803 1009.118, 470.803 1019.118, 470.803 1029.118, 470.803 1039.118, 470.803 1049.118, 470.803 1059.118, 470.803 1069.118, 470.803 1079.118, 470.803 1089.118, 470.803 1099.118, 470.803 1109.118, 470.803 1119.118, 470.803 1129.118, 470.803 1139.118, 470.803 1149.118, 470.803 1159.118, 470.803 1169.118, 470.803 1179.118, 470.803 1189.118, 470.803 1199.118, 470.803 1209.118, 470.803 1219.118, 470.803 1229.118, 470.803 1239.118, 470.803 1249.118, 470.803 1259.118, 470.803 1269.118, 470.803 1279.118, 470.803 1289.118, 470.803 1299.118, 470.803 1314.230, 470.803 " />
            <path fill="none" stroke-width="3.0" stroke-linecap="butt" stroke-opacity="1.0" stroke="rgb(0, 0, 0)" stroke-linejoin="round" d=" M 1314.230, 470.803 1314.230, 470.803 1314.230, 470.803 " />
            <path fill="none" stroke-width="3.0" stroke-linecap="butt" stroke-opacity="1.0" stroke="rgb(0, 0, 0)" stroke-linejoin="round" d=" M 657.862, 470.803 657.862, 470.803 " />
            <path fill="none" stroke-width="3.0" stroke-linecap="butt" stroke-opacity="1.0" stroke="rgb(0, 0, 0)" stroke-linejoin="round" d=" M 689.118, 630.207 699.118, 630.207 709.118, 630.207 719.118, 630.207 729.118, 630.207 739.118, 630.207 749.118, 630.207 759.118, 630.207 769.118, 630.207 779.118, 630.207 789.118, 630.207 799.118, 630.207 809.118, 630.207 819.118, 630.207 829.118, 630.207 839.118, 630.207 849.118, 630.207 859.118, 630.207 869.118, 630.207 879.118, 630.207 889.118, 630.207 899.118, 630.207 909.118, 630.207 919.118, 630.207 929.118, 630.207 939.118, 630.207 949.118, 630.207 959.118, 630.207 969.118, 630.207 979.118, 630.207 989.118, 630.207 999.118, 630.207 1009.118, 630.207 1019.118, 630.207 1029.118, 630.207 1039.118, 630.207 1049.118, 630.207 1059.118, 630.207 1069.118, 630.207 1079.118, 630.207 1089.118, 630.207 1099.118, 630.207 1109.118, 630.207 1119.118, 630.207 1129.118, 630.207 1139.118, 630.207 1149.118, 630.207 1159.118, 630.207 1169.118, 630.207 1179.118, 630.207 1189.118, 630.207 1199.118, 630.207 1209.118, 630.207 1219.118, 630.207 1229.118, 630.207 1239.118, 630.207 1249.118, 630.207 1259.118, 630.207 1269.118, 630.207 1279.118, 630.207 1289.118, 630.207 1299.118, 630.207 1314.230, 630.207 " />
            <path fill="none" stroke-width="3.0" stroke-linecap="butt" stroke-opacity="1.0" stroke="rgb(0, 0, 0)" stroke-linejoin="round" d=" M 689.118, 470.803 679.118, 470.803 669.118, 470.803 659.118, 470.803 657.862, 470.803 " />
            <path fill="none" stroke-width="3.0" stroke-linecap="butt" stroke-opacity="1.0" stroke="rgb(0, 0, 0)" stroke-linejoin="round" d=" M 1314.230, 470.803 1304.230, 470.803 1294.230, 470.803 1284.230, 470.803 1274.230, 470.803 1264.230, 470.803 1254.230, 470.803 1244.230, 470.803 1234.230, 470.803 1224.230, 470.803 1214.230, 470.803 1204.230, 470.803 1194.230, 470.803 1184.230, 470.803 1174.230, 470.803 1164.230, 470.803 1154.230, 470.803 1144.230, 470.803 1134.230, 470.803 1124.230, 470.803 1114.230, 470.803 1104.230, 470.803 1094.230, 470.803 1084.230, 470.803 1074.230, 470.803 1064.230, 470.803 1054.230, 470.803 1044.230, 470.803 1034.230, 470.803 1024.230, 470.803 1014.230, 470.803 1004.230, 470.803 994.230, 470.803 984.230, 470.803 974.230, 470.803 964.230, 470.803 954.230, 470.803 944.230, 470.803 934.230, 470.803 924.230, 470.803 914.230, 470.803 904.230, 470.803 894.230, 470.803 884.230, 470.803 874.230, 470.803 864.230, 470.803 854.230, 470.803 844.230, 470.803 834.230, 470.803 824.230, 470.803 814.230, 470.803 804.230, 470.803 794.230, 470.803 784.230, 470.803 774.230, 470.803 764.230, 470.803 754.230, 470.803 744.230, 470.803 734.230, 470.803 724.230, 470.803 714.230, 470.803 704.230, 470.803 689.118, 470.803 " />
        </g>
    </g>
</svg>
